<svg width="22" height="22" viewBox="0 0 22 22" fill="none" xmlns="http://www.w3.org/2000/svg">
<g clip-path="url(#clip0_1116_307)">
<path d="M18.333 7.33333C20.3551 7.33333 21.9996 5.68883 21.9996 3.66667C21.9996 1.6445 20.3551 0 18.333 0C16.3108 0 14.6663 1.6445 14.6663 3.66667C14.6663 5.68883 16.3108 7.33333 18.333 7.33333ZM18.333 1.83333C19.344 1.83333 20.1663 2.65558 20.1663 3.66667C20.1663 4.67775 19.344 5.5 18.333 5.5C17.3219 5.5 16.4996 4.67775 16.4996 3.66667C16.4996 2.65558 17.3219 1.83333 18.333 1.83333ZM21.3323 14.8931L21.3277 14.8757L19.8858 8.94117C19.3926 9.086 18.8729 9.16758 18.333 9.16758C18.2376 9.16758 18.145 9.15842 18.0506 9.15292L19.5512 15.3267C19.553 15.3331 19.5576 15.3377 19.5585 15.345H19.5549C19.63 15.6273 19.5741 15.9088 19.4 16.1388C19.224 16.3726 18.9636 16.5009 18.6703 16.5009H3.20154C2.92196 16.5009 2.66162 16.3753 2.48837 16.1608C2.31237 15.9408 2.24637 15.6585 2.29862 15.4165L4.45462 7.05925C5.13846 3.98292 7.82979 1.83425 10.9996 1.83425C11.7082 1.83425 12.3957 1.95525 13.0456 2.16517C13.218 1.55925 13.4893 0.996417 13.845 0.495917C12.9475 0.176917 11.9887 0.00183333 10.9996 0.00183333C6.96446 0 3.53704 2.739 2.67262 6.63025L0.516625 14.9893C0.336042 15.8052 0.533125 16.6494 1.05837 17.3067C1.58362 17.9593 2.36554 18.3333 3.20154 18.3333H6.50887C6.93512 20.4224 8.78588 22 10.9996 22C13.2134 22 15.0641 20.4224 15.4904 18.3333H18.6712C19.5393 18.3333 20.3368 17.9364 20.862 17.2462C21.3717 16.5743 21.5395 15.7245 21.3332 14.9087C21.3323 14.9032 21.3323 14.8986 21.3323 14.8931ZM10.9996 20.1667C9.80613 20.1667 8.79779 19.3976 8.41829 18.3333H13.58C13.2005 19.3976 12.1931 20.1667 10.9996 20.1667Z" fill="black"/>
</g>
<defs>
<clipPath id="clip0_1116_307">
<rect width="22" height="22" fill="white"/>
</clipPath>
</defs>
</svg>
