<svg width="48" height="48" viewBox="0 0 48 48" fill="none" xmlns="http://www.w3.org/2000/svg">
<g clip-path="url(#clip0_1174_1078)">
<path d="M24 32C27.3137 32 30 29.3137 30 26C30 22.6863 27.3137 20 24 20C20.6863 20 18 22.6863 18 26C18 29.3137 20.6863 32 24 32Z" stroke="#B8B8B8" stroke-width="2" stroke-linecap="round" stroke-linejoin="round"/>
<path d="M24 8H20C19.4696 8 18.9609 8.21071 18.5858 8.58579C18.2107 8.96086 18 9.46957 18 10C18 11.0609 17.5786 12.0783 16.8284 12.8284C16.0783 13.5786 15.0609 14 14 14H10C8.93913 14 7.92172 14.4214 7.17157 15.1716C6.42143 15.9217 6 16.9391 6 18V36C6 37.0609 6.42143 38.0783 7.17157 38.8284C7.92172 39.5786 8.93913 40 10 40H38C39.0609 40 40.0783 39.5786 40.8284 38.8284C41.5786 38.0783 42 37.0609 42 36V22" stroke="#B8B8B8" stroke-width="2" stroke-linecap="round" stroke-linejoin="round"/>
<path d="M30 12H42" stroke="#B8B8B8" stroke-width="2" stroke-linecap="round" stroke-linejoin="round"/>
<path d="M36 6V18" stroke="#B8B8B8" stroke-width="2" stroke-linecap="round" stroke-linejoin="round"/>
</g>
<defs>
<clipPath id="clip0_1174_1078">
<rect width="48" height="48" fill="white"/>
</clipPath>
</defs>
</svg>
