<svg width="72" height="72" viewBox="0 0 72 72" fill="none" xmlns="http://www.w3.org/2000/svg">
<path d="M48.6789 12.1953H23.3177C22.9423 12.1953 22.5951 11.9982 22.4022 11.677C22.2093 11.3554 22.1989 10.956 22.3761 10.625L25.7961 4.21508C26.4864 2.9211 27.8262 2.11719 29.2933 2.11719H42.7032C44.1703 2.11719 45.5101 2.9211 46.2004 4.21507L49.6204 10.625C49.7977 10.956 49.7872 11.3554 49.5943 11.677C49.4014 11.9982 49.0542 12.1953 48.6789 12.1953ZM25.0975 10.0598H46.899L44.3173 5.22022C43.9983 4.62329 43.3799 4.25261 42.7032 4.25261H29.2933C28.6166 4.25261 27.9983 4.62329 27.6792 5.22022L25.0975 10.0598Z" fill="#E84545"/>
<path d="M62.8737 16.4316L58.5851 65.0135C58.3419 67.7692 56.0337 69.8826 53.2673 69.8826H18.7353C15.9688 69.8826 13.6607 67.7692 13.4174 65.0135L9.12891 16.4316H62.8737Z" fill="#E84545"/>
<path d="M62.3549 22.3081L62.8727 16.4316H9.12891L9.64667 22.3081H62.3549Z" fill="white"/>
<path d="M28.0474 33.809V57.191C28.0474 58.7424 26.9175 60 25.5237 60C24.1299 60 23 58.7424 23 57.191V33.809C23 32.2576 24.1299 31 25.5237 31C26.9175 31 28.0474 32.2576 28.0474 33.809ZM38.5237 33.809V57.191C38.5237 58.7424 37.3938 60 36 60C34.6062 60 33.4763 58.7424 33.4763 57.191V33.809C33.4763 32.2576 34.6062 31 36 31C37.3938 31 38.5237 32.2576 38.5237 33.809ZM49 33.809V57.191C49 58.7424 47.8701 60 46.4763 60C45.0825 60 43.9526 58.7424 43.9526 57.191V33.809C43.9526 32.2576 45.0825 31 46.4763 31C47.8701 31 49 32.2576 49 33.809Z" fill="white"/>
<path d="M68.046 14.1474C68.046 16.5599 66.0904 18.5155 63.6779 18.5155H8.32124C5.90879 18.5155 3.95312 16.5599 3.95312 14.1474C3.95312 11.735 5.90879 9.7793 8.32124 9.7793H63.6779C66.0904 9.7793 68.046 11.735 68.046 14.1474Z" fill="#E84545"/>
<path opacity="0.5" d="M25.6194 13.7483H17.2067C16.9141 13.7483 16.6773 13.5115 16.6773 13.2189C16.6773 12.9262 16.9141 12.6895 17.2067 12.6895H25.6194C25.912 12.6895 26.1488 12.9262 26.1488 13.2189C26.1488 13.5115 25.912 13.7483 25.6194 13.7483ZM14.874 13.7483H13.7872C13.4946 13.7483 13.2578 13.5115 13.2578 13.2189C13.2578 12.9262 13.4946 12.6895 13.7872 12.6895H14.874C15.1666 12.6895 15.4034 12.9262 15.4034 13.2189C15.4034 13.5115 15.1666 13.7483 14.874 13.7483Z" fill="#F6F7F8"/>
</svg>
