<svg width="26" height="26" viewBox="0 0 26 26" fill="none" xmlns="http://www.w3.org/2000/svg">
<path d="M23.702 9.94826L16.01 2.15426C14.293 0.612262 11.707 0.611262 9.968 2.17526L2.297 9.94826C1.461 10.7973 1 11.9193 1 13.1093V21.5003C1 23.4303 2.57 25.0003 4.5 25.0003H21.5C23.43 25.0003 25 23.4303 25 21.5003V13.1093C25 11.9193 24.539 10.7963 23.702 9.94826ZM17 24.0003H9V18.0003C9 15.7943 10.794 14.0003 13 14.0003C15.206 14.0003 17 15.7943 17 18.0003V24.0003ZM24 21.5003C24 22.8793 22.879 24.0003 21.5 24.0003H18V18.0003C18 15.2433 15.757 13.0003 13 13.0003C10.243 13.0003 8 15.2433 8 18.0003V24.0003H4.5C3.122 24.0003 2 22.8793 2 21.5003V13.1093C2 12.1833 2.358 11.3103 3.009 10.6513L10.659 2.89826C11.329 2.29426 12.17 1.99526 13.008 1.99526C13.839 1.99526 14.666 2.29026 15.32 2.87826L22.991 10.6513C23.641 11.3103 24 12.1833 24 13.1093V21.5003Z" fill="#B8B8B8" stroke="#B8B8B8"/>
</svg>
