<svg width="15" height="18" viewBox="0 0 15 18" fill="none" xmlns="http://www.w3.org/2000/svg">
<path d="M7.5 0.5C8.68871 0.5 9.83172 0.985481 10.6768 1.85449C11.5222 2.72412 11.9999 3.90684 12 5.14258V6.5H14.167C14.2507 6.50009 14.3339 6.53421 14.3975 6.59961C14.4616 6.66557 14.5 6.75824 14.5 6.85742V17.1426C14.5 17.2418 14.4616 17.3344 14.3975 17.4004C14.3339 17.4658 14.2507 17.4999 14.167 17.5H0.833008C0.749332 17.4999 0.666126 17.4658 0.602539 17.4004C0.538423 17.3344 0.5 17.2418 0.5 17.1426V6.85742C0.5 6.75824 0.538422 6.66557 0.602539 6.59961C0.666124 6.53421 0.74933 6.50009 0.833008 6.5H3V5.14258C3.00007 3.90684 3.47777 2.72412 4.32324 1.85449C5.16828 0.98548 6.31129 0.5 7.5 0.5ZM1.16699 16.7861H13.833V7.21387H1.16699V16.7861ZM7.5 1.21387C6.47872 1.21387 5.50191 1.63188 4.78418 2.37012C4.06712 3.10779 3.66706 4.10534 3.66699 5.14258V6.5H11.333V5.14258C11.3329 4.10534 10.9329 3.10779 10.2158 2.37012C9.49809 1.63188 8.52128 1.21387 7.5 1.21387ZM7.16699 12.3428L6.92188 12.1973C6.70027 12.0656 6.52401 11.861 6.42383 11.6123C6.32356 11.3633 6.30603 11.0862 6.37402 10.8252C6.44199 10.5643 6.5908 10.3359 6.79492 10.1748C6.99877 10.0139 7.24684 9.92871 7.5 9.92871C7.75316 9.92871 8.00123 10.0139 8.20508 10.1748C8.4092 10.3359 8.55801 10.5643 8.62598 10.8252C8.69397 11.0862 8.67644 11.3633 8.57617 11.6123C8.47599 11.861 8.29973 12.0656 8.07812 12.1973L7.83301 12.3428V14.0713H7.16699V12.3428Z" fill="#E8E8E8" stroke="#92989B"/>
</svg>
