<svg width="82" height="82" viewBox="0 0 82 82" fill="none" xmlns="http://www.w3.org/2000/svg">
<path d="M41 0C18.3839 0 0 18.3839 0 41C0 63.6161 18.3839 82 41 82C63.6161 82 82 63.6161 82 41C82 18.3839 63.6161 0 41 0ZM37.0323 60.8387V57.9554C37.0323 55.7599 38.8045 53.9877 41 53.9877C43.1955 53.9877 44.9677 55.7599 44.9677 57.9554V60.8387C44.9677 63.0341 43.1955 64.8065 41 64.8065C38.8045 64.8065 37.0323 63.0341 37.0323 60.8387ZM44.9677 46.3961C44.9677 48.5651 43.1955 50.3638 41 50.3638C38.8045 50.3638 37.0323 48.5651 37.0323 46.3961V21.1613C37.0323 18.9658 38.8045 17.1935 41 17.1935C43.1955 17.1935 44.9677 18.9658 44.9677 21.1613V46.3961Z" fill="#E84545"/>
</svg>
