<svg width="19" height="19" viewBox="0 0 19 19" fill="none" xmlns="http://www.w3.org/2000/svg">
<path d="M5.60941 9.30852C6.37138 10.8821 7.64377 12.1512 9.21925 12.9091C9.33547 12.9641 9.46401 12.988 9.59222 12.9782C9.72044 12.9685 9.84391 12.9255 9.95048 12.8536L12.2645 11.3078C12.3667 11.2385 12.4849 11.1962 12.6079 11.1848C12.7309 11.1735 12.8548 11.1935 12.9679 11.243L17.2998 13.1035C17.4478 13.1651 17.5715 13.2737 17.6518 13.4125C17.7321 13.5513 17.7645 13.7127 17.744 13.8717C17.6067 14.9433 17.0837 15.9282 16.2727 16.642C15.4618 17.3559 14.4185 17.7498 13.3382 17.75C9.99958 17.75 6.79773 16.4237 4.43699 14.063C2.07625 11.7023 0.75 8.50041 0.75 5.16182C0.750243 4.08146 1.14413 3.0382 1.85797 2.22725C2.5718 1.41631 3.55666 0.893256 4.62827 0.75596C4.78732 0.735529 4.94868 0.76795 5.0875 0.848231C5.22632 0.928511 5.3349 1.0522 5.39652 1.20025L7.25698 5.54132C7.30536 5.65271 7.3256 5.7743 7.31591 5.89536C7.30623 6.01642 7.26692 6.13323 7.20144 6.23552L5.65569 8.58655C5.58687 8.69288 5.54648 8.81509 5.53838 8.9415C5.53027 9.0679 5.55473 9.19426 5.60941 9.30852Z" stroke="#92989B" stroke-width="1.5" stroke-linecap="round" stroke-linejoin="round"/>
</svg>
