<svg width="31" height="28" viewBox="0 0 31 28" fill="none" xmlns="http://www.w3.org/2000/svg">
<path d="M22.359 0.25C27.0436 0.25 30.84 3.9508 30.84 9.13192C30.84 19.4942 19.275 25.4154 15.42 27.6359C11.565 25.4154 0 19.4942 0 9.13192C0 3.9508 3.855 0.25 8.481 0.25C11.3491 0.25 13.878 1.73032 15.42 3.21064C16.962 1.73032 19.4909 0.25 22.359 0.25ZM16.8602 23.3489C18.2187 22.5259 19.4446 21.7072 20.5919 20.8309C25.1886 17.3225 27.756 13.4885 27.756 9.13192C27.756 5.63836 25.3859 3.21064 22.359 3.21064C20.6998 3.21064 18.9049 4.05442 17.6004 5.30381L15.42 7.39699L13.2396 5.30381C11.9351 4.05442 10.1402 3.21064 8.481 3.21064C5.48952 3.21064 3.084 5.66205 3.084 9.13192C3.084 13.49 5.65297 17.3225 10.2466 20.8309C11.3954 21.7072 12.6213 22.5259 13.9798 23.3474C14.4408 23.6272 14.8973 23.8951 15.42 24.1942C15.9427 23.8951 16.3992 23.6272 16.8602 23.3489Z" fill="#F17896"/>
</svg>
