<svg width="251" height="243" viewBox="0 0 251 243" fill="none" xmlns="http://www.w3.org/2000/svg">
<path d="M45.7683 33.2708C45.7801 30.5348 45.1388 27.8331 43.8946 25.3765C42.6504 22.9199 40.8368 20.7747 38.5954 19.1083C36.3539 17.4419 33.7451 16.2993 30.9725 15.7696C28.1998 15.24 25.3383 15.3375 22.611 16.0547C19.8837 16.7719 17.3643 18.0893 15.2495 19.9042C13.1346 21.7191 11.4814 23.9824 10.4188 26.5177C9.3561 29.0529 8.91273 31.7916 9.12324 34.52C9.33374 37.2484 10.1924 39.8929 11.6323 42.2472L11.6875 42.3104C12.3903 43.4622 13.2688 44.2544 14.1624 45.4888L24.8148 59.1454C25.1231 59.5419 25.5223 59.8636 25.981 60.0851C26.4397 60.3067 26.9453 60.422 27.4579 60.422C27.9704 60.422 28.476 60.3067 28.9347 60.0851C29.3934 59.8636 29.7926 59.5419 30.1009 59.1454L40.5425 45.7124C41.4933 44.6266 42.3815 43.4909 43.2031 42.3104L43.2432 42.2618C44.9017 39.5379 45.7738 36.4327 45.7683 33.2708ZM27.4202 41.0079C25.8227 41.0079 24.2611 40.5493 22.9328 39.69C21.6045 38.8308 20.5692 37.6095 19.9579 36.1806C19.3465 34.7518 19.1866 33.1795 19.4982 31.6626C19.8099 30.1457 20.5792 28.7524 21.7088 27.6588C22.8384 26.5652 24.2776 25.8204 25.8444 25.5187C27.4112 25.217 29.0353 25.3718 30.5112 25.9637C31.9871 26.5555 33.2486 27.5578 34.1361 28.8437C35.0237 30.1297 35.4974 31.6416 35.4974 33.1882C35.498 34.2152 35.2896 35.2324 34.8839 36.1814C34.4782 37.1304 33.8833 37.9927 33.1331 38.719C32.3829 39.4452 31.4923 40.0212 30.512 40.414C29.5317 40.8067 28.4811 41.0085 27.4202 41.0079Z" fill="#37474F"/>
<path d="M243.651 140.998C243.653 139.794 243.367 138.606 242.818 137.526C242.268 136.446 241.468 135.504 240.481 134.772C239.494 134.04 238.345 133.538 237.125 133.306C235.905 133.073 234.646 133.116 233.446 133.431C232.246 133.747 231.137 134.326 230.206 135.123C229.274 135.921 228.545 136.916 228.076 138.03C227.606 139.145 227.408 140.35 227.497 141.55C227.587 142.751 227.961 143.916 228.591 144.954V144.983C228.902 145.469 229.294 145.853 229.685 146.383L234.379 152.404C234.515 152.579 234.691 152.721 234.894 152.819C235.097 152.917 235.32 152.968 235.546 152.968C235.773 152.968 235.996 152.917 236.198 152.819C236.401 152.721 236.577 152.579 236.713 152.404L241.327 146.485C241.747 146.004 242.139 145.501 242.501 144.978V144.954C243.246 143.759 243.643 142.393 243.651 140.998ZM235.564 144.4C234.86 144.4 234.172 144.198 233.586 143.819C233.001 143.44 232.545 142.902 232.276 142.273C232.006 141.643 231.936 140.95 232.073 140.282C232.21 139.613 232.549 138.999 233.047 138.518C233.545 138.036 234.179 137.707 234.869 137.575C235.56 137.442 236.275 137.51 236.926 137.771C237.576 138.031 238.132 138.473 238.523 139.04C238.914 139.606 239.123 140.273 239.123 140.954C239.124 141.407 239.032 141.856 238.854 142.275C238.675 142.694 238.413 143.075 238.083 143.395C237.752 143.716 237.36 143.971 236.927 144.145C236.495 144.319 236.032 144.409 235.564 144.41V144.4Z" fill="#37474F"/>
<path d="M215.767 202.754C223.675 195.097 223.675 182.684 215.767 175.028C207.858 167.371 195.036 167.371 187.128 175.028C179.22 182.684 179.22 195.097 187.128 202.754C195.036 210.41 207.858 210.41 215.767 202.754Z" fill="#F5F5F5"/>
<path d="M201.448 205.212C198.114 205.213 194.854 204.257 192.081 202.464C189.309 200.671 187.147 198.123 185.871 195.141C184.594 192.159 184.259 188.877 184.909 185.711C185.559 182.545 187.164 179.637 189.522 177.354C191.879 175.071 194.882 173.516 198.153 172.886C201.423 172.256 204.812 172.579 207.893 173.814C210.973 175.049 213.606 177.141 215.459 179.825C217.311 182.509 218.3 185.664 218.3 188.892C218.296 193.218 216.52 197.366 213.36 200.426C210.201 203.486 205.917 205.207 201.448 205.212ZM201.448 175.367C198.685 175.367 195.984 176.16 193.686 177.646C191.389 179.132 189.598 181.245 188.541 183.716C187.484 186.188 187.207 188.907 187.746 191.531C188.285 194.154 189.616 196.564 191.569 198.456C193.523 200.348 196.013 201.636 198.723 202.158C201.433 202.68 204.242 202.412 206.794 201.388C209.347 200.364 211.529 198.631 213.064 196.406C214.599 194.182 215.419 191.567 215.419 188.892C215.415 185.306 213.942 181.868 211.322 179.333C208.703 176.797 205.152 175.371 201.448 175.367Z" fill="white"/>
<path d="M201.333 194.473C200.104 194.473 198.904 194.12 197.882 193.459C196.861 192.799 196.065 191.859 195.595 190.761C195.125 189.662 195.003 188.453 195.243 187.286C195.483 186.12 196.075 185.049 196.944 184.208C197.813 183.368 198.919 182.796 200.124 182.564C201.329 182.333 202.578 182.452 203.713 182.908C204.847 183.364 205.817 184.135 206.498 185.125C207.18 186.114 207.544 187.277 207.543 188.466C207.541 190.06 206.886 191.587 205.722 192.714C204.558 193.84 202.979 194.473 201.333 194.473ZM201.333 185.239C200.676 185.239 200.033 185.428 199.486 185.781C198.94 186.135 198.514 186.637 198.263 187.225C198.011 187.813 197.945 188.46 198.073 189.084C198.202 189.708 198.518 190.281 198.983 190.731C199.448 191.181 200.04 191.488 200.684 191.612C201.329 191.736 201.997 191.672 202.605 191.429C203.212 191.185 203.731 190.773 204.096 190.244C204.461 189.715 204.656 189.093 204.656 188.456C204.652 187.605 204.3 186.79 203.678 186.189C203.055 185.588 202.212 185.25 201.333 185.249V185.239Z" fill="white"/>
<path d="M201.333 188.465H193.487L194.857 190.807L176.389 199.001L177.011 200.007L195.54 191.906L196.81 194.234L201.333 188.465Z" fill="#E0E0E0"/>
<path d="M176.388 199.001L176.192 198.816C175.717 198.367 175.126 198.048 174.481 197.893C173.836 197.737 173.16 197.751 172.523 197.932L165.158 200.007L169.26 201.752L167.613 205.994L174.526 203.632C175.284 203.37 175.935 202.878 176.382 202.229C176.83 201.581 177.05 200.81 177.01 200.031L176.388 199.001Z" fill="#E0E0E0"/>
<path d="M87.0236 203.114L87.1742 203.065L87.6109 202.944L89.2876 202.458L95.5676 200.752L95.5074 200.854C95.1861 199.809 94.8246 198.643 94.4431 197.389V197.336L94.4933 197.292C96.2326 195.881 97.7127 194.195 98.8708 192.305C99.516 191.241 100.009 190.096 100.337 188.903C100.68 187.635 100.76 186.314 100.573 185.015C100.117 182.194 98.6574 179.615 96.4461 177.725C94.0555 175.704 91.0712 174.459 87.9121 174.163C85.5405 173.968 83.1605 174.43 81.0498 175.495C79.0156 176.453 77.2581 177.884 75.9344 179.66C74.7149 181.333 73.9579 183.28 73.7356 185.317C73.7055 185.803 73.6302 186.289 73.6402 186.775C73.6503 187.261 73.6653 187.747 73.6804 188.194C73.7601 189.106 73.9282 190.009 74.1824 190.891C74.4319 191.719 74.7683 192.521 75.1864 193.282C75.5958 193.992 76.0803 194.658 76.6322 195.27C77.639 196.363 78.8265 197.286 80.1462 198.001C82.0717 199.059 84.1818 199.764 86.371 200.081H86.4061V200.111L86.9081 202.317C86.9583 202.56 86.9985 202.75 87.0236 202.886C87.0487 203.022 87.0637 203.08 87.0637 203.085C87.0398 203.029 87.023 202.97 87.0135 202.91L86.873 202.356L86.3308 200.13L86.376 200.169C84.1627 199.878 82.0255 199.188 80.0759 198.133C78.738 197.416 77.5333 196.488 76.5117 195.387C75.9384 194.767 75.4336 194.091 75.0057 193.37C74.5688 192.597 74.2155 191.783 73.9515 190.94C73.6997 190.044 73.5317 189.128 73.4495 188.204L73.4043 186.746C73.4043 186.26 73.4696 185.774 73.4997 185.288C73.7188 183.21 74.4863 181.221 75.7286 179.514C77.0741 177.7 78.8626 176.238 80.9343 175.257C83.0957 174.165 85.534 173.695 87.9623 173.901C91.1841 174.196 94.2279 175.466 96.662 177.531C97.8092 178.508 98.7634 179.679 99.4782 180.986C99.6688 181.299 99.8366 181.623 99.9802 181.958C100.135 182.273 100.266 182.598 100.372 182.93C100.477 183.271 100.593 183.601 100.688 183.936C100.783 184.272 100.813 184.622 100.879 184.962C101.065 186.292 100.978 187.645 100.623 188.942C100.285 190.153 99.7787 191.314 99.1167 192.393C97.9359 194.298 96.4304 195.995 94.664 197.413L94.6991 197.316L95.7383 200.781L95.7634 200.859L95.6831 200.883L89.3328 202.516L87.6611 202.939L87.2394 203.041L87.0236 203.114Z" fill="#FEC700"/>
<path d="M96.384 203.117C94.9584 203.635 93.5016 204.068 92.0217 204.415C90.5654 204.846 89.0835 205.192 87.584 205.45C89.0112 204.938 90.4677 204.506 91.9464 204.157C93.403 203.726 94.8848 203.378 96.384 203.117Z" fill="#E0E0E0"/>
<path d="M94.4224 207.094C93.974 207.401 93.4587 207.603 92.9164 207.687C92.3935 207.85 91.8391 207.897 91.2949 207.823C91.798 207.638 92.3196 207.505 92.8511 207.424C93.3623 207.264 93.8886 207.153 94.4224 207.094Z" fill="#E0E0E0"/>
<path d="M88.8139 202.662C88.7908 202.619 88.7739 202.573 88.7637 202.526C88.7336 202.419 88.6984 202.283 88.6482 202.113C88.5478 201.727 88.4073 201.198 88.2265 200.524C87.8651 199.119 87.3531 197.122 86.7205 194.658C86.4043 193.418 86.0629 192.063 85.7165 190.609C85.6426 190.25 85.494 189.91 85.2798 189.608C85.1893 189.46 85.0465 189.348 84.8777 189.294C84.7089 189.239 84.5255 189.246 84.3612 189.312C84.2053 189.413 84.0797 189.552 83.9968 189.715C83.914 189.878 83.8769 190.059 83.8893 190.24C83.9013 190.629 84.0602 191.001 84.336 191.285C84.6327 191.581 84.9991 191.804 85.4038 191.933C85.8086 192.063 86.2397 192.095 86.6603 192.028C87.1015 191.964 87.5189 191.793 87.8748 191.533C88.2307 191.272 88.5138 190.93 88.6984 190.536C89.1085 189.718 89.2115 188.786 88.9896 187.902C88.904 187.455 88.686 187.041 88.3621 186.712C88.2074 186.562 88.0065 186.466 87.79 186.437C87.5735 186.408 87.3531 186.448 87.1623 186.551C86.998 186.694 86.8869 186.885 86.846 187.095C86.8052 187.305 86.837 187.522 86.9364 187.713C87.1567 188.109 87.4781 188.443 87.8701 188.685C88.6101 189.254 89.501 189.609 90.4404 189.71C90.8881 189.749 91.339 189.684 91.7556 189.521C92.1489 189.344 92.4931 189.079 92.7596 188.748C93.0283 188.426 93.1894 188.033 93.2214 187.62C93.2381 187.423 93.2128 187.224 93.1472 187.036C93.0816 186.848 92.977 186.674 92.8399 186.527C92.7223 186.385 92.5658 186.278 92.3883 186.218C92.2108 186.157 92.0194 186.147 91.8359 186.187C91.6567 186.25 91.4947 186.352 91.3624 186.485C91.2302 186.618 91.1311 186.779 91.0729 186.955C90.8269 187.669 91.0428 188.466 91.1331 189.2C91.3741 190.658 91.6351 192.048 91.9012 193.297C92.4032 195.785 92.8399 197.802 93.1361 199.216C93.2767 199.902 93.3921 200.441 93.4724 200.825C93.5026 201 93.5327 201.136 93.5528 201.248C93.5577 201.296 93.5577 201.345 93.5528 201.394C93.5322 201.349 93.517 201.301 93.5076 201.253C93.4775 201.146 93.4423 201.01 93.3972 200.84C93.3018 200.456 93.1763 199.921 93.0106 199.241C92.6843 197.851 92.2174 195.839 91.6903 193.336C91.4293 192.087 91.1432 190.716 90.8872 189.234C90.8319 188.86 90.7667 188.486 90.7265 188.092C90.6679 187.685 90.7022 187.27 90.8269 186.877C90.8979 186.666 91.0175 186.474 91.1767 186.315C91.3359 186.156 91.5304 186.034 91.7456 185.958C91.978 185.901 92.2226 185.908 92.4509 185.979C92.6792 186.051 92.882 186.183 93.0357 186.362C93.1938 186.534 93.3148 186.734 93.3915 186.952C93.4682 187.17 93.4992 187.401 93.4825 187.63C93.4542 188.094 93.2789 188.539 92.9805 188.903C92.6818 189.274 92.294 189.567 91.851 189.759C91.3947 189.938 90.9012 190.012 90.4103 189.973C89.4209 189.866 88.4819 189.494 87.6994 188.899C87.2692 188.624 86.9226 188.243 86.6954 187.795C86.551 187.555 86.5043 187.271 86.5643 187C86.6244 186.728 86.7869 186.487 87.0202 186.325C87.2535 186.163 87.5407 186.091 87.826 186.123C88.1112 186.155 88.374 186.288 88.5629 186.498C88.9229 186.864 89.1669 187.323 89.2657 187.82C89.5015 188.765 89.3897 189.76 88.9494 190.634C88.7432 191.062 88.431 191.435 88.0405 191.719C87.6499 192.003 87.1932 192.189 86.7105 192.262C86.2473 192.334 85.7728 192.296 85.3284 192.15C84.884 192.004 84.483 191.756 84.1603 191.426C83.8437 191.097 83.6648 190.665 83.6583 190.216C83.6451 189.991 83.695 189.767 83.8029 189.568C83.9107 189.368 84.0724 189.201 84.2708 189.083C84.3782 189.033 84.4947 189.005 84.6136 188.999C84.7326 188.993 84.8515 189.01 84.9635 189.049C85.1671 189.132 85.3415 189.271 85.4655 189.448C85.6944 189.778 85.8563 190.148 85.9424 190.536C86.2989 191.994 86.6302 193.355 86.9464 194.599L88.352 200.475C88.5077 201.156 88.6332 201.69 88.7235 202.079C88.7587 202.249 88.7888 202.385 88.8139 202.497C88.8245 202.552 88.8245 202.608 88.8139 202.662Z" fill="#E0E0E0"/>
<path d="M96.0383 204.936C94.8967 205.379 93.722 205.738 92.5243 206.01C91.3447 206.365 90.1401 206.638 88.9199 206.826C90.0615 206.383 91.2362 206.023 92.4339 205.752C93.6137 205.397 94.8182 205.124 96.0383 204.936Z" fill="#E0E0E0"/>
<path d="M232.496 227.38C232.496 227.448 184.591 227.507 125.505 227.507C66.4198 227.507 18.5039 227.448 18.5039 227.38C18.5039 227.312 66.3997 227.254 125.505 227.254C184.611 227.254 232.496 227.307 232.496 227.38Z" fill="#263238"/>
<path d="M223.656 31.8809H27.4492V44.0503H223.656V31.8809Z" fill="#E0E0E0"/>
<path d="M223.625 55.2285H27.418V161.76H223.625V55.2285Z" fill="white"/>
<path d="M27.4492 43.9588H54.3916L57.0572 36.4355H100.731L103.397 43.9588H223.656V55.4867H27.4492V43.9588Z" fill="#EBEBEB"/>
<path d="M33.9244 36.7355C33.9244 37.0181 33.8379 37.2943 33.6757 37.5293C33.5135 37.7643 33.283 37.9474 33.0133 38.0556C32.7437 38.1637 32.4469 38.192 32.1606 38.1369C31.8743 38.0817 31.6113 37.9457 31.4049 37.7458C31.1985 37.546 31.058 37.2914 31.001 37.0142C30.9441 36.7371 30.9733 36.4498 31.085 36.1887C31.1967 35.9276 31.3859 35.7045 31.6286 35.5475C31.8713 35.3904 32.1566 35.3066 32.4485 35.3066C32.6425 35.306 32.8348 35.3425 33.0141 35.4141C33.1935 35.4857 33.3564 35.5909 33.4936 35.7237C33.6308 35.8565 33.7395 36.0143 33.8134 36.1879C33.8874 36.3616 33.9251 36.5477 33.9244 36.7355Z" fill="#263238"/>
<path d="M38.4869 36.7355C38.4869 37.0181 38.4004 37.2943 38.2382 37.5293C38.076 37.7643 37.8455 37.9474 37.5758 38.0556C37.3061 38.1637 37.0094 38.192 36.7231 38.1369C36.4368 38.0817 36.1738 37.9457 35.9674 37.7458C35.761 37.546 35.6205 37.2914 35.5635 37.0142C35.5066 36.7371 35.5358 36.4498 35.6475 36.1887C35.7592 35.9276 35.9484 35.7045 36.1911 35.5475C36.4338 35.3904 36.7191 35.3066 37.011 35.3066C37.205 35.306 37.3973 35.3425 37.5766 35.4141C37.756 35.4857 37.9189 35.5909 38.0561 35.7237C38.1933 35.8565 38.302 36.0143 38.3759 36.1879C38.4499 36.3616 38.4876 36.5477 38.4869 36.7355Z" fill="#263238"/>
<path d="M43.0514 36.7355C43.0514 37.0181 42.9648 37.2943 42.8026 37.5293C42.6405 37.7643 42.41 37.9474 42.1403 38.0556C41.8706 38.1637 41.5739 38.192 41.2876 38.1369C41.0013 38.0817 40.7383 37.9457 40.5319 37.7458C40.3255 37.546 40.1849 37.2914 40.128 37.0142C40.071 36.7371 40.1002 36.4498 40.212 36.1887C40.3237 35.9276 40.5128 35.7045 40.7555 35.5475C40.9982 35.3904 41.2836 35.3066 41.5755 35.3066C41.7695 35.306 41.9617 35.3425 42.1411 35.4141C42.3204 35.4857 42.4834 35.5909 42.6206 35.7237C42.7578 35.8565 42.8664 36.0143 42.9404 36.1879C43.0143 36.3616 43.052 36.5477 43.0514 36.7355Z" fill="#263238"/>
<path d="M201.969 53.1926H67.3579C66.3674 53.1926 65.4174 52.8117 64.717 52.1336C64.0165 51.4555 63.623 50.5358 63.623 49.5768C63.623 48.6178 64.0165 47.6981 64.717 47.02C65.4174 46.3419 66.3674 45.9609 67.3579 45.9609H201.969C202.96 45.9609 203.91 46.3419 204.61 47.02C205.311 47.6981 205.704 48.6178 205.704 49.5768C205.704 50.5358 205.311 51.4555 204.61 52.1336C203.91 52.8117 202.96 53.1926 201.969 53.1926Z" fill="#FAFAFA"/>
<path d="M70.5802 50.0583V51.283H69.9426V50.1555C69.9426 49.8105 69.777 49.6695 69.4958 49.6695C69.2147 49.6695 68.9637 49.8542 68.9637 50.243V51.3025H68.3262V48.3379H68.9637V49.3682C69.1555 49.1993 69.4073 49.1087 69.6665 49.1155C69.794 49.1072 69.9217 49.1265 70.0406 49.1718C70.1594 49.2171 70.2664 49.2874 70.3538 49.3776C70.4412 49.4678 70.5068 49.5756 70.5459 49.6934C70.5851 49.8111 70.5968 49.9357 70.5802 50.0583Z" fill="#E0E0E0"/>
<path d="M72.5788 51.1747C72.4291 51.2674 72.2543 51.3148 72.0768 51.3108C71.9677 51.3253 71.8568 51.3157 71.7521 51.2826C71.6475 51.2496 71.552 51.1941 71.4728 51.1201C71.3935 51.0462 71.3326 50.9559 71.2946 50.8559C71.2567 50.7559 71.2426 50.6489 71.2535 50.5429V49.6681H70.9121V49.1821H71.2535V48.6621H71.891V49.1821H72.4382V49.6681H71.891V50.5429C71.8856 50.5799 71.8888 50.6176 71.9005 50.6532C71.9123 50.6888 71.9321 50.7214 71.9587 50.7485C71.9852 50.7756 72.0178 50.7965 72.0539 50.8097C72.09 50.823 72.1287 50.8281 72.1671 50.8248C72.2596 50.8259 72.3498 50.7968 72.4231 50.7422L72.5788 51.1747Z" fill="#E0E0E0"/>
<path d="M74.2955 51.1747C74.1454 51.2663 73.971 51.3136 73.7936 51.3108C73.6845 51.3253 73.5736 51.3157 73.4689 51.2826C73.3643 51.2496 73.2688 51.1941 73.1896 51.1201C73.1103 51.0462 73.0494 50.9559 73.0114 50.8559C72.9735 50.7559 72.9594 50.6489 72.9703 50.5429V49.6681H72.6289V49.1821H72.9703V48.6621H73.6078V49.1821H74.16V49.6681H73.6078V50.5429C73.6033 50.5797 73.6072 50.6171 73.6193 50.6523C73.6314 50.6874 73.6513 50.7196 73.6776 50.7465C73.704 50.7734 73.7361 50.7944 73.7718 50.8079C73.8074 50.8214 73.8457 50.8272 73.8839 50.8248C73.9779 50.8259 74.0697 50.7968 74.1449 50.7422L74.2955 51.1747Z" fill="#E0E0E0"/>
<path d="M77.0773 50.2137C77.0864 50.3574 77.0645 50.5013 77.013 50.6363C76.9614 50.7713 76.8814 50.8944 76.7779 50.9977C76.6745 51.1011 76.5499 51.1824 76.4122 51.2366C76.2744 51.2907 76.1265 51.3164 75.9779 51.3121C75.8548 51.3177 75.732 51.2976 75.6176 51.2531C75.5033 51.2087 75.4002 51.1409 75.3153 51.0545V52.0265H74.6777V49.1105H75.3002V49.3583C75.387 49.265 75.4943 49.1917 75.6141 49.1438C75.734 49.0958 75.8635 49.0745 75.993 49.0813C76.1435 49.0786 76.293 49.1067 76.4315 49.1638C76.57 49.2209 76.6946 49.3057 76.7969 49.4126C76.8993 49.5195 76.9772 49.6461 77.0255 49.7841C77.0738 49.9222 77.0915 50.0686 77.0773 50.2137ZM76.4297 50.2137C76.42 50.1086 76.3789 50.0086 76.3115 49.9257C76.2441 49.8428 76.1533 49.7806 76.0501 49.7468C75.9469 49.7129 75.8358 49.7088 75.7302 49.735C75.6247 49.7612 75.5292 49.8165 75.4555 49.8942C75.3819 49.9719 75.3331 50.0687 75.3151 50.1727C75.2972 50.2768 75.3109 50.3836 75.3545 50.4803C75.3982 50.577 75.4699 50.6593 75.561 50.7172C75.652 50.7751 75.7585 50.8062 75.8675 50.8066C75.946 50.8077 76.0238 50.7927 76.0959 50.7626C76.1679 50.7325 76.2326 50.688 76.2857 50.632C76.3388 50.5761 76.3791 50.5099 76.4039 50.4378C76.4287 50.3657 76.4375 50.2893 76.4297 50.2137Z" fill="#E0E0E0"/>
<path d="M77.3482 49.4977C77.3592 49.4027 77.406 49.315 77.4796 49.2513C77.5533 49.1876 77.6486 49.1523 77.7473 49.1523C77.8461 49.1523 77.9413 49.1876 78.015 49.2513C78.0886 49.315 78.1354 49.4027 78.1464 49.4977C78.1527 49.5521 78.1471 49.6072 78.1299 49.6593C78.1127 49.7114 78.0844 49.7595 78.0467 49.8003C78.009 49.8411 77.9629 49.8737 77.9113 49.896C77.8597 49.9184 77.8038 49.9299 77.7473 49.9299C77.6908 49.9299 77.6349 49.9184 77.5833 49.896C77.5317 49.8737 77.4856 49.8411 77.4479 49.8003C77.4102 49.7595 77.3819 49.7114 77.3647 49.6593C77.3475 49.6072 77.3419 49.5521 77.3482 49.4977ZM77.3482 50.9217C77.3592 50.8267 77.406 50.739 77.4796 50.6753C77.5533 50.6115 77.6486 50.5763 77.7473 50.5763C77.8461 50.5763 77.9413 50.6115 78.015 50.6753C78.0886 50.739 78.1354 50.8267 78.1464 50.9217C78.1527 50.9761 78.1471 51.0312 78.1299 51.0833C78.1127 51.1354 78.0844 51.1835 78.0467 51.2242C78.009 51.265 77.9629 51.2977 77.9113 51.32C77.8597 51.3424 77.8038 51.3539 77.7473 51.3539C77.6908 51.3539 77.6349 51.3424 77.5833 51.32C77.5317 51.2977 77.4856 51.265 77.4479 51.2242C77.4102 51.1835 77.3819 51.1354 77.3647 51.0833C77.3475 51.0312 77.3419 50.9761 77.3482 50.9217Z" fill="#E0E0E0"/>
<path d="M79.7176 47.9395H80.2898L78.9344 51.6768H78.3672L79.7176 47.9395Z" fill="#E0E0E0"/>
<path d="M81.0273 47.9395H81.5945L80.2442 51.6768H79.6719L81.0273 47.9395Z" fill="#E0E0E0"/>
<path d="M201.849 74.3871H84.5667C82.8106 74.3871 81.1264 73.7117 79.8847 72.5095C78.6429 71.3074 77.9453 69.6769 77.9453 67.9767C77.9466 66.277 78.6447 64.6473 79.8861 63.4454C81.1276 62.2435 82.811 61.5677 84.5667 61.5664H201.849C203.605 61.5677 205.288 62.2435 206.529 63.4454C207.771 64.6473 208.469 66.277 208.47 67.9767C208.47 69.6769 207.773 71.3074 206.531 72.5095C205.289 73.7117 203.605 74.3871 201.849 74.3871Z" fill="#FAFAFA"/>
<path d="M201.848 74.3869C202.783 74.3674 203.705 74.1657 204.559 73.794C205.398 73.4198 206.148 72.8811 206.762 72.2119C207.375 71.5426 207.839 70.7575 208.123 69.906C208.361 69.1462 208.453 68.3505 208.394 67.5586C208.332 66.6721 208.079 65.8079 207.651 65.0217C207.173 64.1603 206.498 63.4157 205.678 62.8444C204.782 62.2195 203.737 61.8249 202.641 61.6974C202.058 61.6491 201.473 61.6329 200.889 61.6488H199.062H182.199L84.5755 61.6829C83.4033 61.6861 82.2536 61.995 81.2473 62.5771C80.2585 63.1486 79.4446 63.9645 78.889 64.9411C78.3335 65.9177 78.0563 67.0198 78.086 68.1343C78.1156 69.2488 78.451 70.3357 79.0577 71.2833C79.6644 72.2309 80.5206 73.0052 81.5384 73.5267C82.5438 74.0311 83.6644 74.2818 84.7964 74.2557H117.517L161.407 74.2848L191.025 74.3237H199.057H201.15C201.622 74.3237 201.863 74.3237 201.863 74.3237H201.15H199.057H191.025L161.407 74.3675L117.517 74.3918H91.5935H84.7964C83.622 74.4211 82.4593 74.1601 81.4179 73.6336C80.0849 72.9512 79.0262 71.8564 78.4106 70.5237C77.7949 69.191 77.6579 67.6972 78.0211 66.2803C78.3844 64.8634 79.2272 63.605 80.4151 62.7058C81.6029 61.8065 83.0676 61.3181 84.5755 61.3184L182.225 61.4787H199.087H200.914C201.505 61.4648 202.097 61.4826 202.686 61.5322C203.802 61.6665 204.864 62.0729 205.773 62.7132C206.571 63.2663 207.231 63.984 207.707 64.8144C208.183 65.6448 208.462 66.5672 208.524 67.5149C208.577 68.3192 208.479 69.1261 208.233 69.8963C208.005 70.5685 207.666 71.2005 207.229 71.7674C206.548 72.661 205.64 73.3692 204.594 73.8231C203.956 74.0947 203.279 74.2701 202.586 74.3432C202.089 74.3869 201.848 74.3869 201.848 74.3869Z" fill="#263238"/>
<path d="M87.2578 69.3415L87.5038 68.8069C87.8144 69.013 88.1815 69.1247 88.558 69.1277C88.9947 69.1277 89.1704 68.9867 89.1704 68.7972C89.1704 68.2189 87.3181 68.6174 87.3181 67.4704C87.3181 66.9455 87.7548 66.4984 88.6634 66.4984C89.0501 66.4913 89.4317 66.5853 89.7678 66.7706L89.5419 67.3149C89.2744 67.1606 88.9698 67.0768 88.6584 67.0719C88.2216 67.0719 88.051 67.2323 88.051 67.4267C88.051 67.9953 89.9033 67.6016 89.9033 68.734C89.9033 69.2492 89.4616 69.706 88.553 69.706C88.0928 69.7163 87.6406 69.589 87.2578 69.3415Z" fill="#E0E0E0"/>
<path d="M92.7431 68.6561H90.8907C90.9275 68.8055 91.019 68.9371 91.1481 69.0264C91.2773 69.1157 91.4355 69.1568 91.5935 69.1421C91.7066 69.1455 91.8192 69.1265 91.9245 69.0864C92.0298 69.0463 92.1255 68.9859 92.2059 68.9088L92.5824 69.3073C92.391 69.4856 92.1519 69.6085 91.8921 69.6623C91.6324 69.7161 91.3623 69.6985 91.1122 69.6116C90.8622 69.5247 90.6423 69.3719 90.4772 69.1704C90.3121 68.9689 90.2084 68.7268 90.1778 68.4714C90.1756 68.3068 90.2082 68.1436 90.2735 67.9917C90.3389 67.8398 90.4357 67.7025 90.558 67.5882C90.6803 67.4739 90.8255 67.3851 90.9845 67.3272C91.1436 67.2693 91.3133 67.2435 91.483 67.2515C91.6523 67.2432 91.8215 67.2693 91.9798 67.328C92.138 67.3868 92.2818 67.477 92.4019 67.5928C92.522 67.7086 92.6158 67.8475 92.6771 68.0005C92.7384 68.1535 92.766 68.3172 92.7581 68.4811C92.7581 68.5248 92.7481 68.5977 92.7431 68.6561ZM90.8806 68.2527H92.0854C92.0596 68.1162 91.9852 67.9929 91.8751 67.9041C91.7651 67.8153 91.6263 67.7667 91.483 67.7667C91.3398 67.7667 91.201 67.8153 91.091 67.9041C90.9809 67.9929 90.9065 68.1162 90.8806 68.2527Z" fill="#E0E0E0"/>
<path d="M95.3301 68.2922V69.6481H94.6675V69.3517C94.5847 69.4665 94.4717 69.5577 94.3401 69.6159C94.2086 69.674 94.0633 69.6969 93.9195 69.6822C93.3472 69.6822 93.0059 69.3711 93.0059 68.9629C93.0059 68.5546 93.3121 68.2533 94.055 68.2533H94.6223C94.6223 67.9617 94.4366 67.7673 94.055 67.7673C93.8026 67.7652 93.5561 67.8419 93.3522 67.986L93.0962 67.5C93.4106 67.3057 93.7775 67.2059 94.1504 67.2133C94.8783 67.2424 95.3301 67.5778 95.3301 68.2922ZM94.6223 68.8997V68.6567H94.1203C93.789 68.6567 93.6836 68.7733 93.6836 68.9337C93.6836 69.0941 93.8342 69.2204 94.0801 69.2204C94.1942 69.2313 94.3089 69.2059 94.4067 69.148C94.5046 69.0902 94.5803 69.003 94.6223 68.8997Z" fill="#E0E0E0"/>
<path d="M97.4937 67.2429V67.8747H97.3331C97.244 67.8676 97.1544 67.8797 97.0707 67.9103C96.9871 67.9409 96.9116 67.9891 96.8496 68.0514C96.7876 68.1138 96.7407 68.1887 96.7123 68.2708C96.6839 68.3528 96.6748 68.44 96.6855 68.5259V69.6486H95.9727V67.2769H96.6504V67.5879C96.7526 67.4698 96.8824 67.3769 97.029 67.3169C97.1757 67.2569 97.335 67.2315 97.4937 67.2429Z" fill="#E0E0E0"/>
<path d="M97.7129 68.462C97.713 68.2931 97.7493 68.126 97.8193 67.9713C97.8894 67.8165 97.9918 67.6775 98.12 67.5629C98.2483 67.4484 98.3996 67.3607 98.5645 67.3055C98.7294 67.2503 98.9044 67.2287 99.0783 67.2421C99.3021 67.2248 99.5262 67.2729 99.7213 67.3804C99.9165 67.4879 100.074 67.6497 100.173 67.8448L99.6205 68.1315C99.5698 68.0332 99.4917 67.9505 99.395 67.893C99.2983 67.8354 99.1868 67.8053 99.0733 67.8059C98.8936 67.8059 98.7212 67.875 98.5941 67.9981C98.467 68.1211 98.3956 68.288 98.3956 68.462C98.3956 68.636 98.467 68.8029 98.5941 68.9259C98.7212 69.049 98.8936 69.1181 99.0733 69.1181C99.1871 69.1199 99.299 69.0902 99.3959 69.0325C99.4929 68.9749 99.5708 68.8916 99.6205 68.7925L100.173 69.0841C100.072 69.2774 99.9141 69.4375 99.7193 69.5439C99.5245 69.6503 99.3014 69.6983 99.0783 69.6819C98.9044 69.6953 98.7294 69.6737 98.5645 69.6185C98.3996 69.5633 98.2483 69.4756 98.12 69.3611C97.9918 69.2465 97.8894 69.1075 97.8193 68.9528C97.7493 68.798 97.713 68.6309 97.7129 68.462Z" fill="#E0E0E0"/>
<path d="M103.07 68.2918V69.6477H102.357V68.3939C102.357 68.0099 102.176 67.835 101.855 67.835C101.534 67.835 101.268 68.0391 101.268 68.4765V69.6477H100.555V66.377H101.268V67.5239C101.371 67.4293 101.494 67.3556 101.627 67.3072C101.761 67.2588 101.903 67.2367 102.046 67.242C102.188 67.2314 102.331 67.2517 102.465 67.3016C102.598 67.3514 102.718 67.4295 102.817 67.5302C102.915 67.6308 102.988 67.7514 103.032 67.8832C103.076 68.015 103.089 68.1546 103.07 68.2918Z" fill="#E0E0E0"/>
<path d="M104.828 69.2499C104.828 69.1365 104.875 69.0277 104.958 68.9475C105.04 68.8673 105.153 68.8223 105.27 68.8223C105.387 68.8223 105.499 68.8673 105.582 68.9475C105.665 69.0277 105.712 69.1365 105.712 69.2499C105.712 69.3634 105.665 69.4722 105.582 69.5524C105.499 69.6326 105.387 69.6776 105.27 69.6776C105.153 69.6776 105.04 69.6326 104.958 69.5524C104.875 69.4722 104.828 69.3634 104.828 69.2499Z" fill="#E0E0E0"/>
<path d="M106.022 69.249C106.023 69.1646 106.049 69.0824 106.098 69.0127C106.148 68.943 106.217 68.889 106.298 68.8573C106.379 68.8257 106.467 68.8179 106.553 68.835C106.638 68.852 106.716 68.8931 106.777 68.9531C106.839 69.0131 106.88 69.0894 106.897 69.1722C106.914 69.255 106.905 69.3408 106.871 69.4186C106.837 69.4965 106.781 69.563 106.708 69.6098C106.636 69.6566 106.551 69.6815 106.463 69.6815C106.405 69.6822 106.347 69.6714 106.292 69.6499C106.238 69.6283 106.189 69.5964 106.148 69.556C106.106 69.5157 106.074 69.4677 106.052 69.4149C106.031 69.3622 106.02 69.3057 106.022 69.249Z" fill="#E0E0E0"/>
<path d="M107.211 69.2499C107.211 69.1365 107.257 69.0277 107.34 68.9475C107.423 68.8673 107.536 68.8223 107.653 68.8223C107.77 68.8223 107.882 68.8673 107.965 68.9475C108.048 69.0277 108.094 69.1365 108.094 69.2499C108.094 69.3061 108.083 69.3617 108.061 69.4136C108.039 69.4655 108.006 69.5126 107.965 69.5524C107.924 69.5921 107.875 69.6236 107.822 69.6451C107.768 69.6666 107.711 69.6776 107.653 69.6776C107.595 69.6776 107.537 69.6666 107.484 69.6451C107.43 69.6236 107.381 69.5921 107.34 69.5524C107.299 69.5126 107.267 69.4655 107.245 69.4136C107.222 69.3617 107.211 69.3061 107.211 69.2499Z" fill="#E0E0E0"/>
<path d="M64.2913 85.5346C64.2913 85.6075 59.5826 85.6609 53.7795 85.6609C47.9763 85.6609 43.2676 85.6075 43.2676 85.5346C43.2676 85.4617 47.9713 85.4082 53.7795 85.4082C59.5876 85.4082 64.2913 85.4762 64.2913 85.5346Z" fill="black"/>
<path d="M65.1146 91.3633H43.2676V112.514H65.1146V91.3633Z" fill="#FFA8A7"/>
<path d="M197.862 96.349C197.862 96.4171 170.754 96.4754 137.301 96.4754C103.847 96.4754 76.7344 96.4171 76.7344 96.349C76.7344 96.281 103.842 96.2227 137.301 96.2227C170.759 96.2227 197.862 96.2761 197.862 96.349Z" fill="black"/>
<path d="M109.867 104.31C109.867 104.383 102.719 104.436 93.9089 104.436C85.0988 104.436 77.9453 104.383 77.9453 104.31C77.9453 104.237 85.0888 104.184 93.9089 104.184C102.729 104.184 109.867 104.242 109.867 104.31Z" fill="black"/>
<path d="M178.506 111.698C178.506 111.766 155.991 111.824 128.226 111.824C100.46 111.824 77.9453 111.766 77.9453 111.698C77.9453 111.63 100.455 111.566 128.226 111.566C155.996 111.566 178.506 111.625 178.506 111.698Z" fill="#E0E0E0"/>
<path d="M64.2913 123.443C64.2913 123.511 59.5826 123.569 53.7795 123.569C47.9763 123.569 43.2676 123.511 43.2676 123.443C43.2676 123.375 47.9713 123.316 53.7795 123.316C59.5876 123.316 64.2913 123.36 64.2913 123.443Z" fill="black"/>
<path d="M65.1146 129.246H43.2676V150.397H65.1146V129.246Z" fill="#FFA8A7"/>
<path d="M205.061 134.228C205.061 134.301 176.331 134.354 140.9 134.354C105.469 134.354 76.7344 134.301 76.7344 134.228C76.7344 134.155 105.459 134.102 140.9 134.102C176.341 134.102 205.061 134.16 205.061 134.228Z" fill="black"/>
<path d="M109.867 142.193C109.867 142.261 102.719 142.319 93.9089 142.319C85.0988 142.319 77.9453 142.261 77.9453 142.193C77.9453 142.125 85.0888 142.066 93.9089 142.066C102.729 142.066 109.867 142.125 109.867 142.193Z" fill="black"/>
<path d="M196.016 149.576C196.016 149.648 169.585 149.702 136.986 149.702C104.386 149.702 77.9453 149.648 77.9453 149.576C77.9453 149.503 104.376 149.449 136.986 149.449C169.595 149.449 196.016 149.508 196.016 149.576Z" fill="#E0E0E0"/>
<path d="M223.656 162.017C223.656 161.181 223.615 111.085 223.55 31.8811L223.656 31.9832H27.464L27.5945 31.8568C27.5945 78.3087 27.5945 122.442 27.5945 161.993L27.474 161.876L223.681 161.993L27.474 162.105H27.3535V161.993C27.3535 122.442 27.3535 78.3087 27.3535 31.8568V31.7305H27.4991H223.691H223.796V31.8325C223.701 111.085 223.656 161.181 223.656 162.017Z" fill="#263238"/>
<path d="M95.4296 41.31C95.4296 41.3829 88.502 41.4363 79.958 41.4363C71.4139 41.4363 64.4863 41.3829 64.4863 41.31C64.4863 41.2371 71.4139 41.1836 79.958 41.1836C88.502 41.1836 95.4296 41.2419 95.4296 41.31Z" fill="black"/>
<path d="M67.5185 65.2305H40.0391V73.2446H67.5185V65.2305Z" fill="#455A64"/>
<path d="M116.177 86.2201C116.177 86.293 107.643 86.3465 97.1014 86.3465C86.5594 86.3465 78.0254 86.293 78.0254 86.2201C78.0254 86.1472 86.5594 86.0938 97.1014 86.0938C107.643 86.0938 116.177 86.1521 116.177 86.2201Z" fill="#FFA8A7"/>
<path d="M116.177 123.443C116.177 123.511 107.643 123.569 97.1014 123.569C86.5594 123.569 78.0254 123.511 78.0254 123.443C78.0254 123.375 86.5594 123.316 97.1014 123.316C107.643 123.316 116.177 123.36 116.177 123.443Z" fill="#FFA8A7"/>
<path d="M199.323 70.1096C198.691 70.1106 198.073 69.93 197.547 69.5908C197.021 69.2515 196.611 68.7688 196.369 68.2038C196.127 67.6388 196.063 67.0169 196.186 66.4169C196.309 65.8168 196.613 65.2656 197.06 64.8331C197.507 64.4005 198.076 64.106 198.696 63.9869C199.316 63.8678 199.958 63.9294 200.542 64.164C201.125 64.3985 201.624 64.7954 201.974 65.3045C202.325 65.8135 202.511 66.4118 202.51 67.0236C202.509 67.8416 202.173 68.6259 201.575 69.2043C200.978 69.7828 200.168 70.1084 199.323 70.1096ZM199.323 64.4186C198.79 64.4176 198.27 64.5696 197.826 64.8552C197.383 65.1409 197.038 65.5474 196.833 66.0233C196.629 66.4992 196.575 67.0231 196.678 67.5288C196.781 68.0344 197.037 68.499 197.413 68.8638C197.789 69.2286 198.269 69.4772 198.791 69.5781C199.313 69.679 199.854 69.6277 200.346 69.4307C200.838 69.2337 201.259 68.8998 201.555 68.4713C201.85 68.0428 202.008 67.539 202.008 67.0236C202.008 66.3335 201.726 65.6717 201.222 65.1833C200.719 64.6949 200.035 64.4199 199.323 64.4186Z" fill="#FFA8A7"/>
<path d="M203.245 71.481C203.177 71.4809 203.112 71.4546 203.064 71.4081L200.986 69.4107C200.963 69.388 200.944 69.3611 200.931 69.3315C200.919 69.3019 200.912 69.2702 200.912 69.2381C200.912 69.2061 200.919 69.1744 200.931 69.1448C200.944 69.1152 200.963 69.0883 200.986 69.0656C201.009 69.0429 201.037 69.025 201.068 69.0127C201.098 69.0005 201.131 68.9941 201.164 68.9941C201.197 68.9941 201.23 69.0005 201.261 69.0127C201.291 69.025 201.319 69.0429 201.342 69.0656L203.421 71.0631C203.454 71.0976 203.477 71.1409 203.486 71.1877C203.495 71.2344 203.49 71.2827 203.472 71.3268C203.453 71.3709 203.422 71.4089 203.382 71.4362C203.342 71.4635 203.294 71.4791 203.245 71.481Z" fill="#FFA8A7"/>
<path d="M150.54 103.765C150.54 103.833 142.322 103.891 132.182 103.891C122.041 103.891 113.818 103.833 113.818 103.765C113.818 103.697 122.041 103.639 132.182 103.639C142.322 103.639 150.54 103.692 150.54 103.765Z" fill="black"/>
<path d="M174.268 103.216C174.268 103.289 169.966 103.343 164.665 103.343C159.364 103.343 155.057 103.289 155.057 103.216C155.057 103.143 159.359 103.09 164.665 103.09C169.971 103.09 174.268 103.148 174.268 103.216Z" fill="black"/>
<path d="M150.363 142.193C150.363 142.261 142.145 142.319 132.005 142.319C121.864 142.319 113.646 142.261 113.646 142.193C113.646 142.125 121.864 142.066 132.005 142.066C142.145 142.066 150.363 142.125 150.363 142.193Z" fill="black"/>
<path d="M51.8152 152.195C47.739 154.237 44.6166 157.755 42.3726 161.629C40.1287 165.502 38.6779 169.745 37.2472 173.988L35.9922 195.746C40.7311 187.941 44.5262 178.765 45.5603 169.764L42.4078 169.492C44.5212 169.181 46.2983 167.699 47.4278 165.939C48.5573 164.18 49.1346 162.153 49.7018 160.156L45.8565 160.71C48.8998 158.719 51.0338 155.67 51.8152 152.195Z" fill="#036831"/>
<g opacity="0.3">
<path d="M51.8152 152.195C47.739 154.237 44.6166 157.755 42.3726 161.629C40.1287 165.502 38.6779 169.745 37.2472 173.988L35.9922 195.746C40.7311 187.941 44.5262 178.765 45.5603 169.764L42.4078 169.492C44.5212 169.181 46.2983 167.699 47.4278 165.939C48.5573 164.18 49.1346 162.153 49.7018 160.156L45.8565 160.71C48.8998 158.719 51.0338 155.67 51.8152 152.195Z" fill="black"/>
</g>
<path d="M35.2907 200.815C35.2907 200.815 25.0047 188.898 25.1252 177.521H29.2768C29.2768 177.521 24.7588 174.644 25.1202 173.035C25.4816 171.427 25.6222 165.337 25.6222 165.337L29.4223 166.256C29.4223 166.256 26.571 164.875 26.2146 162.693C25.8581 160.511 27.0479 150.393 27.0479 150.393C27.0479 150.393 31.6763 155.107 33.102 159.933C34.5277 164.759 38.2425 170.391 37.1481 185.103C36.0538 199.814 35.2907 200.815 35.2907 200.815Z" fill="#036831"/>
<path d="M40.506 201.942C40.506 201.942 51.6504 194.754 54.1252 185.583L50.7819 184.679C50.7819 184.679 55.064 183.328 55.1393 181.958C55.2146 180.587 56.4947 175.664 56.4947 175.664L53.2317 175.601C53.2317 175.601 55.8371 175.115 56.6152 173.414C57.3933 171.713 58.7286 163.354 58.7286 163.354C58.7286 163.354 53.9395 166.158 51.7006 169.74C49.4617 173.321 45.1746 177.054 42.7399 189.116C40.3052 201.179 40.506 201.942 40.506 201.942Z" fill="#036831"/>
<path d="M29.834 160.789C29.8517 160.828 29.8652 160.869 29.8741 160.911L29.9645 161.275C30.0448 161.62 30.1553 162.092 30.3008 162.689C30.587 163.919 30.9685 165.703 31.4002 167.914C32.2787 172.332 33.3179 178.475 34.1361 185.298C34.9544 192.121 35.3861 198.333 35.5718 202.833C35.6672 205.083 35.7174 206.901 35.7275 208.179C35.7275 208.796 35.7275 209.277 35.7275 209.637C35.7275 209.792 35.7275 209.914 35.7275 210.016C35.735 210.058 35.735 210.101 35.7275 210.142C35.7205 210.101 35.7205 210.058 35.7275 210.016C35.7275 209.919 35.7275 209.792 35.7275 209.642C35.7275 209.287 35.6973 208.806 35.6722 208.184C35.6321 206.925 35.5518 205.107 35.4313 202.862C35.2004 198.367 34.7335 192.17 33.9253 185.366C33.1171 178.562 32.103 172.409 31.2697 167.982C30.8581 165.771 30.5067 163.982 30.2657 162.748C30.1452 162.145 30.0498 161.669 29.9796 161.329C29.9545 161.173 29.9294 161.052 29.9143 160.954C29.8753 160.906 29.8478 160.849 29.834 160.789Z" fill="#029B48"/>
<path d="M33.8647 208.116C33.8647 208.116 24.4522 197.803 21.5255 191.524L23.7343 190.615C22.1329 190.867 20.4964 190.202 19.2565 189.191C18.0653 188.123 17.0406 186.894 16.2144 185.541L19.1209 185.055C16.4519 184.32 14.1766 182.62 12.7656 180.307C16.1993 180.851 19.2916 182.673 21.8568 184.953C23.8925 186.842 25.7412 188.912 27.3788 191.135C28.1979 192.203 28.9138 193.342 29.5174 194.537C31.0886 197.705 33.8697 204.32 33.8647 208.116Z" fill="#036831"/>
<path d="M54.2701 169.391C54.2624 169.428 54.2489 169.464 54.2299 169.498L54.0894 169.799L53.5221 170.951C53.0201 171.923 52.3123 173.381 51.4489 175.184C49.722 178.766 47.4329 183.771 45.1939 189.399C42.955 195.027 41.1779 200.213 39.943 203.979C39.3356 205.87 38.8587 207.381 38.5374 208.465L38.1509 209.695L38.0455 210.01C38.0455 210.079 38.0053 210.117 38.0003 210.113C37.9953 210.108 38.0003 210.074 38.0003 210.001L38.0806 209.68L38.4119 208.446C38.7031 207.376 39.1549 205.836 39.7422 203.94C40.9119 200.145 42.6739 194.944 44.9229 189.307C47.1718 183.669 49.486 178.673 51.2581 175.106C52.1416 173.322 52.8796 171.889 53.4067 170.907L54.0191 169.775L54.1848 169.488C54.2092 169.452 54.2378 169.42 54.2701 169.391Z" fill="#029B48"/>
<path d="M34.662 212.547C34.589 212.306 34.5386 212.058 34.5114 211.808C34.4361 211.322 34.3106 210.647 34.1349 209.801C33.6733 207.603 33.0338 205.443 32.2223 203.342C31.398 201.244 30.4026 199.212 29.2454 197.267C28.7986 196.523 28.4272 195.926 28.1561 195.522C28.0082 195.316 27.8789 195.099 27.7695 194.871C27.9449 195.055 28.1028 195.253 28.2414 195.464C28.5376 195.858 28.9392 196.436 29.4061 197.18C30.6163 199.108 31.6413 201.14 32.4683 203.25C33.2888 205.363 33.9072 207.544 34.3156 209.767C34.4662 210.622 34.5666 211.312 34.6118 211.798C34.65 212.046 34.6668 212.297 34.662 212.547Z" fill="#029B48"/>
<path d="M47.0826 210.111H26.4805V214.179H47.0826V210.111Z" fill="#FFA8A7"/>
<path d="M28.4434 214.186L30.6722 227.866H43.1218L45.2001 214.186H28.4434Z" fill="#7F3E3B"/>
<path d="M45.8165 214.185C45.8165 214.253 41.9209 214.311 37.1118 214.311C32.3026 214.311 28.4121 214.253 28.4121 214.185C28.4121 214.117 32.3076 214.059 37.1118 214.059C41.9159 214.059 45.8165 214.112 45.8165 214.185Z" fill="#029B48"/>
<path d="M193.184 56.4049C189.538 54.7164 186.356 52.2181 183.896 49.1133C181.436 46.0085 179.768 42.3851 179.029 38.5383C178.289 34.6914 178.499 30.7298 179.64 26.9762C180.782 23.2226 182.823 19.783 185.598 16.9377C188.372 14.0924 191.802 11.9219 195.607 10.6027C199.412 9.28364 203.485 8.85332 207.495 9.34684C211.504 9.84036 215.336 11.2438 218.68 13.4427C222.023 15.6417 224.782 18.5741 226.733 22.001C229.36 26.6095 230.407 31.907 229.723 37.129C229.039 42.3511 226.659 47.2277 222.927 51.0554C219.194 54.883 214.302 57.4638 208.956 58.4253C203.611 59.3867 198.088 58.6793 193.184 56.4049ZM214.579 13.0829C209.43 10.7031 203.571 10.1827 198.06 11.6155C192.55 13.0484 187.749 16.3401 184.523 20.8974C181.298 25.4547 179.861 30.9775 180.47 36.4703C181.08 41.9631 183.696 47.0643 187.848 50.8543C191.999 54.6443 197.413 56.8736 203.112 57.1404C208.812 57.4073 214.423 55.694 218.933 52.3095C223.442 48.925 226.555 44.0919 227.709 38.6817C228.863 33.2716 227.983 27.6402 225.227 22.8029C222.813 18.566 219.09 15.167 214.579 13.0829Z" fill="#263238"/>
<path d="M236.497 83.5929C235.776 84.0219 234.909 84.1568 234.086 83.9683C233.263 83.7797 232.55 83.283 232.104 82.5869L215.322 56.2505C215.246 56.1313 215.222 55.9875 215.255 55.8509C215.287 55.7142 215.375 55.5957 215.498 55.5215L219.077 53.3831C219.199 53.311 219.345 53.2874 219.485 53.3173C219.624 53.3472 219.746 53.4283 219.825 53.5435L237.476 79.2189C237.718 79.5652 237.886 79.9556 237.968 80.3664C238.05 80.7772 238.046 81.1999 237.954 81.6089C237.863 82.0179 237.686 82.4046 237.436 82.7457C237.185 83.0867 236.866 83.3749 236.497 83.5929Z" fill="#263238"/>
<path d="M193.584 55.4737C189.936 53.7861 186.751 51.2879 184.289 48.1828C181.827 45.0776 180.158 41.4532 179.417 37.605C178.676 33.7568 178.885 29.7936 180.026 26.0383C181.167 22.283 183.209 18.8418 185.984 15.9952C188.76 13.1486 192.191 10.9771 195.997 9.65752C199.804 8.33798 203.879 7.90776 207.89 8.40193C211.901 8.89611 215.735 10.3007 219.079 12.5012C222.423 14.7017 225.182 17.636 227.133 21.0649C229.758 25.6737 230.804 30.9707 230.12 36.1921C229.435 41.4135 227.055 46.2895 223.323 50.117C219.591 53.9445 214.7 56.5257 209.356 57.4884C204.011 58.4511 198.488 57.7456 193.584 55.4737ZM214.979 12.1516C209.83 9.77181 203.971 9.25141 198.46 10.6842C192.949 12.1171 188.149 15.4089 184.923 19.9661C181.698 24.5234 180.26 30.0463 180.87 35.539C181.48 41.0318 184.096 46.133 188.248 49.923C192.399 53.713 197.813 55.9424 203.512 56.2092C209.212 56.476 214.822 54.7627 219.332 51.3782C223.842 47.9937 226.955 43.1607 228.109 37.7505C229.263 32.3403 228.383 26.7089 225.627 21.8716C223.213 17.6347 219.49 14.2357 214.979 12.1516Z" fill="#0AA2EB"/>
<path d="M215.435 54.8351L219.933 52.1482L237.779 80.1549C238.129 80.7034 238.239 81.3639 238.085 81.991C237.932 82.6181 237.527 83.1605 236.961 83.4989L236.7 83.6545C236.134 83.9929 235.452 84.0995 234.804 83.9509C234.156 83.8023 233.596 83.4107 233.246 82.8622L215.4 54.8555L215.435 54.8351Z" fill="#0AA2EB"/>
<path d="M185.709 26.8362C185.733 26.5768 185.78 26.3199 185.85 26.0684C185.909 25.769 185.988 25.4736 186.085 25.1838C186.199 24.7936 186.333 24.4091 186.487 24.032L186.743 23.3759C186.838 23.1475 186.964 22.9239 187.079 22.6809C187.305 22.1949 187.612 21.7089 187.918 21.1986C188.63 20.1041 189.454 19.0816 190.378 18.1466C191.318 17.2299 192.351 16.4061 193.46 15.6874C193.947 15.3797 194.449 15.0958 194.966 14.8369C195.207 14.7154 195.438 14.589 195.669 14.487L196.341 14.21C196.725 14.0504 197.117 13.9108 197.516 13.792C197.813 13.6885 198.116 13.6041 198.425 13.5393C198.683 13.4683 198.947 13.4147 199.213 13.3789C198.965 13.4801 198.71 13.5629 198.45 13.6268C198.148 13.7073 197.851 13.8046 197.561 13.9184C197.17 14.0476 196.786 14.1969 196.412 14.3655L195.754 14.6522C195.523 14.7543 195.297 14.8855 195.061 15.007C194.559 15.2451 194.097 15.5562 193.58 15.8672C192.498 16.5815 191.489 17.3953 190.568 18.2972C189.657 19.2193 188.838 20.2233 188.124 21.2958C187.817 21.7818 187.506 22.2678 187.275 22.7538C187.16 22.9871 187.029 23.2058 186.929 23.4294L186.648 24.0758C186.457 24.4791 186.342 24.8679 186.216 25.2033C186.108 25.4879 186.018 25.7784 185.945 26.0732C185.887 26.3333 185.809 26.5884 185.709 26.8362Z" fill="#E0E0E0"/>
<g filter="url(#filter0_f_1122_645)">
<ellipse cx="87.3737" cy="187.119" rx="10.0612" ry="9.74051" fill="#FEC700" fill-opacity="0.23"/>
</g>
<defs>
<filter id="filter0_f_1122_645" x="73.3125" y="173.379" width="28.123" height="27.4805" filterUnits="userSpaceOnUse" color-interpolation-filters="sRGB">
<feFlood flood-opacity="0" result="BackgroundImageFix"/>
<feBlend mode="normal" in="SourceGraphic" in2="BackgroundImageFix" result="shape"/>
<feGaussianBlur stdDeviation="2" result="effect1_foregroundBlur_1122_645"/>
</filter>
</defs>
</svg>
