<svg width="21" height="19" viewBox="0 0 21 19" fill="none" xmlns="http://www.w3.org/2000/svg">
<path d="M15.0801 0.75C17.8912 0.750039 20.0498 2.8758 20.0498 5.54492C20.0498 7.19625 19.2906 8.75718 17.7891 10.5381C16.2796 12.3283 14.1057 14.2434 11.4121 16.6162L10.4014 17.501L9.38867 16.6064L9.38672 16.6055C6.69354 14.238 4.51999 12.3258 3.01074 10.5371C1.50923 8.75754 0.75 7.19629 0.75 5.54492C0.75002 2.87586 2.90874 0.750138 5.71973 0.75C7.31081 0.75 8.84388 1.47209 9.83691 2.60254L10.4004 3.24316L10.9639 2.60254C11.9569 1.47209 13.489 0.75 15.0801 0.75Z" fill="#C50C0C" stroke="black" stroke-width="1.5"/>
</svg>
