<svg width="21" height="19" viewBox="0 0 21 19" fill="none" xmlns="http://www.w3.org/2000/svg">
<path d="M15.1042 0C18.2688 0 20.8333 2.5 20.8333 6C20.8333 13 13.0208 17 10.4167 18.5C7.8125 17 0 13 0 6C0 2.5 2.60417 0 5.72917 0C7.66667 0 9.375 1 10.4167 2C11.4583 1 13.1667 0 15.1042 0ZM11.3896 15.604C12.3073 15.048 13.1354 14.495 13.9104 13.903C17.0156 11.533 18.75 8.943 18.75 6C18.75 3.64 17.149 2 15.1042 2C13.9833 2 12.7708 2.57 11.8896 3.414L10.4167 4.828L8.94375 3.414C8.0625 2.57 6.85 2 5.72917 2C3.70833 2 2.08333 3.656 2.08333 6C2.08333 8.944 3.81875 11.533 6.92188 13.903C7.69792 14.495 8.52604 15.048 9.44375 15.603C9.75521 15.792 10.0635 15.973 10.4167 16.175C10.7698 15.973 11.0781 15.792 11.3896 15.604Z" fill="black"/>
</svg>
