<svg width="20" height="20" viewBox="0 0 20 20" fill="none" xmlns="http://www.w3.org/2000/svg">
<path d="M3.73047 16.4443C4.29476 15.3328 5.15581 14.3993 6.21816 13.7472C7.28052 13.0952 8.5027 12.75 9.74922 12.75C10.9957 12.75 12.2179 13.0952 13.2803 13.7472C14.3426 14.3993 15.2037 15.3328 15.768 16.4443" stroke="#92989B" stroke-width="1.5" stroke-linecap="round" stroke-linejoin="round"/>
<path d="M9.75 12.75C11.8211 12.75 13.5 11.0711 13.5 9C13.5 6.92893 11.8211 5.25 9.75 5.25C7.67893 5.25 6 6.92893 6 9C6 11.0711 7.67893 12.75 9.75 12.75Z" stroke="#92989B" stroke-width="1.5" stroke-linecap="round" stroke-linejoin="round"/>
<path d="M9.75 18.75C14.7206 18.75 18.75 14.7206 18.75 9.75C18.75 4.77944 14.7206 0.75 9.75 0.75C4.77944 0.75 0.75 4.77944 0.75 9.75C0.75 14.7206 4.77944 18.75 9.75 18.75Z" stroke="#92989B" stroke-width="1.5" stroke-linecap="round" stroke-linejoin="round"/>
</svg>
