<svg width="28" height="24" viewBox="0 0 28 24" fill="none" xmlns="http://www.w3.org/2000/svg">
<path d="M10.0631 10.2391C12.7839 10.2391 14.9895 8.24257 14.9895 5.77971C14.9895 3.31686 12.7839 1.32031 10.0631 1.32031C7.34234 1.32031 5.13672 3.31686 5.13672 5.77971C5.13672 8.24257 7.34234 10.2391 10.0631 10.2391Z" stroke="#863800" stroke-width="1.8" stroke-linecap="round" stroke-linejoin="round"/>
<path d="M1.1875 22.7207H10.055H18.9225V21.7537C18.9068 20.3941 18.5107 19.0602 17.7711 17.8769C17.0316 16.6934 15.9728 15.6989 14.6935 14.9863C13.4143 14.2737 11.9564 13.8662 10.456 13.8019C10.3223 13.7962 10.1886 13.7932 10.055 13.793C9.92142 13.7932 9.7877 13.7962 9.65394 13.8019C8.15358 13.8662 6.69569 14.2737 5.41644 14.9863C4.13722 15.6989 3.07838 16.6934 2.33883 17.8769C1.5993 19.0602 1.20319 20.3941 1.1875 21.7537V22.7207Z" stroke="#863800" stroke-width="1.8" stroke-linecap="round" stroke-linejoin="round"/>
<path d="M17.9414 10.2391C20.6621 10.2391 22.8678 8.24257 22.8678 5.77971C22.8678 3.31686 20.6621 1.32031 17.9414 1.32031" stroke="#863800" stroke-width="1.8" stroke-linecap="round" stroke-linejoin="round"/>
<path d="M22.866 22.7197H26.8071V21.7526C26.7913 20.393 26.3952 19.0591 25.6557 17.8758C24.9161 16.6922 23.8574 15.6978 22.5781 14.9852C21.7512 14.5246 20.8495 14.1915 19.9102 13.9961" stroke="#863800" stroke-width="1.8" stroke-linecap="round" stroke-linejoin="round"/>
</svg>
