<svg width="39" height="39" viewBox="0 0 39 39" fill="none" xmlns="http://www.w3.org/2000/svg">
<g clip-path="url(#clip0_1092_1305)">
<path d="M19.5 15.8438V20.7188" stroke="black" stroke-width="2.25" stroke-linecap="round" stroke-linejoin="round"/>
<path d="M16.9828 6.09414L3.57657 29.2504C3.363 29.6203 3.25038 30.0398 3.25 30.467C3.24962 30.8941 3.3615 31.3139 3.57442 31.6842C3.78734 32.0545 4.09382 32.3623 4.46317 32.5769C4.83253 32.7914 5.25177 32.9051 5.67892 32.9066H32.4914C32.9186 32.9051 33.3378 32.7914 33.7072 32.5769C34.0765 32.3623 34.383 32.0545 34.5959 31.6842C34.8088 31.3139 34.9207 30.8941 34.9203 30.467C34.92 30.0398 34.8073 29.6203 34.5938 29.2504L21.1875 6.09414C20.9755 5.72374 20.6695 5.41592 20.3003 5.20183C19.9311 4.98775 19.5119 4.875 19.0852 4.875C18.6584 4.875 18.2392 4.98775 17.87 5.20183C17.5009 5.41592 17.1948 5.72374 16.9828 6.09414Z" stroke="black" stroke-width="2.25" stroke-linecap="round" stroke-linejoin="round"/>
<path d="M19.1625 28.575C20.3223 28.575 21.2625 27.6348 21.2625 26.475C21.2625 25.3152 20.3223 24.375 19.1625 24.375C18.0027 24.375 17.0625 25.3152 17.0625 26.475C17.0625 27.6348 18.0027 28.575 19.1625 28.575Z" fill="black"/>
</g>
<defs>
<clipPath id="clip0_1092_1305">
<rect width="39" height="39" fill="white"/>
</clipPath>
</defs>
</svg>
